<svg width="74" height="66" viewBox="0 0 74 66" fill="none" xmlns="http://www.w3.org/2000/svg">
<path d="M45.2732 1.9403C45.2054 1.90601 45.1372 1.87211 45.0688 1.83872C44.3275 1.47559 43.3962 1.71717 42.989 2.37833C42.5818 3.03975 42.8527 3.87029 43.594 4.23342C43.6501 4.26088 43.7062 4.28872 43.7619 4.31682C44.0006 4.43761 44.26 4.49484 44.5162 4.49484C45.0495 4.49484 45.5678 4.24592 45.8498 3.80249C46.2673 3.14622 46.009 2.31258 45.2732 1.9403Z" fill="white"/>
<path d="M27.842 13.7688C26.9962 13.7688 26.3104 14.3803 26.3104 15.1348V16.2215C26.3104 16.976 26.9962 17.5875 27.842 17.5875C28.6878 17.5875 29.3736 16.976 29.3736 16.2215V15.1348C29.3736 14.3803 28.6876 13.7688 27.842 13.7688Z" fill="white"/>
<path d="M46.158 13.7688C45.3122 13.7688 44.6264 14.3803 44.6264 15.1348V16.2215C44.6264 16.976 45.3122 17.5875 46.158 17.5875C47.0038 17.5875 47.6896 16.976 47.6896 16.2215V15.1348C47.6896 14.3803 47.0038 13.7688 46.158 13.7688Z" fill="white"/>
<path d="M61.6527 47.0859L53.8032 21.7537V15.5832V14.9865C53.8032 10.9824 52.055 7.21902 48.8807 4.38965C48.2823 3.85637 47.3128 3.85662 46.7146 4.39017C46.1167 4.92371 46.117 5.78868 46.7152 6.32196C47.7214 7.21889 48.5499 8.23158 49.1903 9.3251C48.2599 8.96519 47.2349 8.76448 46.1579 8.76448C41.9413 8.76448 38.5108 11.8234 38.5108 15.5832V16.4632C38.0281 16.3457 37.5183 16.284 36.9998 16.284C36.4808 16.284 35.9714 16.3478 35.4887 16.4656V15.5831C35.4887 11.8233 32.0584 8.76435 27.8417 8.76435C26.7685 8.76435 25.7468 8.96351 24.8192 9.32097C27.1166 5.4084 31.7141 2.73192 36.9999 2.73192C38.1099 2.73192 39.2136 2.85012 40.2803 3.08331C41.1023 3.26314 41.9313 2.81429 42.1325 2.08158C42.3337 1.34888 41.8309 0.609341 41.0094 0.429774C39.7042 0.144633 38.3552 0 36.9999 0C27.7346 0 20.1967 6.72299 20.1967 14.9867V15.5834V21.7539L12.3473 47.0859C11.5323 49.7167 12.1057 52.4884 13.9204 54.6908C15.5354 56.6507 17.9336 57.8889 20.5878 58.1642C21.1782 60.1574 22.4083 61.9213 24.0711 63.268H20.3457C19.4999 63.268 18.8141 63.8795 18.8141 64.634C18.8141 65.3885 19.4999 66 20.3457 66H36.9985H53.6546C54.5004 66 55.1862 65.3885 55.1862 64.634C55.1862 63.8795 54.5004 63.268 53.6546 63.268H49.9291C51.592 61.9211 52.8221 60.1574 53.4125 58.164C56.0669 57.8887 58.465 56.6503 60.0797 54.6906C61.8945 52.4885 62.4677 49.7167 61.6527 47.0859ZM20.1968 55.337H20.1967C18.6859 55.0188 17.3404 54.228 16.3887 53.0729C15.1333 51.5493 14.7364 49.6324 15.2999 47.8136L20.1968 32.0101V55.337ZM35.3877 19.5618C35.6461 19.2982 36.2054 19.0163 36.9999 19.0163C37.6054 19.0163 38.1764 19.1908 38.5269 19.4832C38.527 19.4833 38.5273 19.4834 38.5275 19.4836C38.6409 19.5781 38.774 19.7219 38.7989 19.8908C38.6464 20.2323 37.8927 20.9304 37.0003 21.585C36.1152 20.9339 35.353 20.2285 35.2009 19.8905C35.2168 19.7824 35.2796 19.672 35.3877 19.5618ZM50.7401 21.9392V55.4787C50.74 59.7737 46.8229 63.2681 42.0079 63.2681H38.5298V60.8086C38.5298 60.0541 37.844 59.4425 36.9982 59.4425C36.1524 59.4425 35.4666 60.0541 35.4666 60.8086V63.2681H31.9916C27.1767 63.2681 23.2596 59.7738 23.2596 55.4788V21.9392V15.5834C23.2596 13.33 25.315 11.4967 27.8415 11.4967C30.3689 11.4967 32.4253 13.3298 32.4253 15.5834V18.4704C32.4253 18.5344 32.432 18.5968 32.4415 18.6584C32.2405 19.0655 32.1332 19.499 32.1332 19.9463C32.1332 20.8978 32.8211 21.9024 34.2983 23.108C35.1947 23.8397 36.0824 24.3975 36.1199 24.4208C36.3841 24.5861 36.6918 24.6687 36.9998 24.6687C37.3078 24.6687 37.6156 24.5861 37.8797 24.4208C37.917 24.3975 38.8048 23.8398 39.7012 23.108C41.1785 21.9024 41.8663 20.8978 41.8663 19.9463C41.8663 19.4997 41.7601 19.0631 41.5586 18.6552C41.5678 18.5945 41.5742 18.5333 41.5742 18.4704V15.5834C41.5742 13.33 43.6306 11.4967 46.158 11.4967C48.6846 11.4967 50.7399 13.3298 50.7399 15.5834V21.9392H50.7401ZM57.6113 53.0729C56.6595 54.2279 55.3142 55.0186 53.8033 55.3369V32.0101L58.7003 47.8135C59.2636 49.6324 58.8667 51.5493 57.6113 53.0729Z" fill="white"/>
</svg>
