<svg width="213" height="204" viewBox="0 0 213 204" fill="none" xmlns="http://www.w3.org/2000/svg">
<path d="M130.313 5.99729C130.118 5.89131 129.922 5.78652 129.725 5.68332C127.591 4.56092 124.911 5.3076 123.739 7.35119C122.566 9.39557 123.346 11.9627 125.48 13.0851C125.642 13.17 125.803 13.256 125.963 13.3429C126.65 13.7162 127.397 13.8931 128.134 13.8931C129.669 13.8931 131.161 13.1238 131.973 11.7531C133.175 9.72468 132.431 7.14798 130.313 5.99729Z" fill="#4FD8E0"/>
<path d="M80.1397 42.558C77.7052 42.558 75.7312 44.4482 75.7312 46.7802V50.1391C75.7312 52.4711 77.7052 54.3613 80.1397 54.3613C82.5743 54.3613 84.5483 52.4711 84.5483 50.1391V46.7802C84.5483 44.4482 82.5739 42.558 80.1397 42.558Z" fill="#4FD8E0"/>
<path d="M132.86 42.558C130.426 42.558 128.452 44.4482 128.452 46.7802V50.1391C128.452 52.4711 130.426 54.3613 132.86 54.3613C135.295 54.3613 137.269 52.4711 137.269 50.1391V46.7802C137.269 44.4482 135.295 42.558 132.86 42.558Z" fill="#4FD8E0"/>
<path d="M177.46 145.538L154.866 67.2388V48.1664V46.322C154.866 33.9457 149.834 22.3133 140.697 13.568C138.975 11.9197 136.184 11.9205 134.462 13.5696C132.741 15.2187 132.742 17.8923 134.464 19.5406C137.36 22.3129 139.745 25.4431 141.588 28.823C138.91 27.7106 135.96 27.0902 132.86 27.0902C120.723 27.0902 110.849 36.5452 110.849 48.1664V50.8861C109.459 50.5232 107.992 50.3323 106.499 50.3323C105.005 50.3323 103.539 50.5295 102.15 50.8937V48.166C102.15 36.5448 92.2762 27.0898 80.1389 27.0898C77.05 27.0898 74.1092 27.7054 71.4392 28.8103C78.0518 16.7169 91.2852 8.4441 106.5 8.4441C109.695 8.4441 112.872 8.80947 115.942 9.53025C118.308 10.0861 120.694 8.6987 121.273 6.43398C121.852 4.16926 120.405 1.88342 118.041 1.32839C114.284 0.447048 110.401 0 106.5 0C79.8306 0 58.1337 20.7801 58.1337 46.3224V48.1668V67.2392L35.5403 145.538C33.1944 153.67 34.8447 162.237 40.0682 169.044C44.7168 175.102 51.6197 178.929 59.2595 179.78C60.9589 185.941 64.4996 191.393 69.2859 195.555H58.5626C56.1281 195.555 54.1541 197.446 54.1541 199.778C54.1541 202.11 56.1281 204 58.5626 204H106.496H154.438C156.873 204 158.847 202.11 158.847 199.778C158.847 197.446 156.873 195.555 154.438 195.555H143.715C148.501 191.393 152.042 185.941 153.741 179.78C161.382 178.929 168.284 175.101 172.932 169.044C178.156 162.237 179.806 153.67 177.46 145.538ZM58.1341 171.042H58.1337C53.7851 170.058 49.9124 167.614 47.1729 164.043C43.5594 159.334 42.417 153.409 44.0391 147.788L58.1341 98.9402V171.042ZM101.859 60.4638C102.603 59.649 104.213 58.7776 106.5 58.7776C108.242 58.7776 109.886 59.3171 110.895 60.2208C110.895 60.2212 110.896 60.2216 110.897 60.222C111.223 60.514 111.606 60.9587 111.678 61.4806C111.239 62.5361 109.07 64.694 106.501 66.7173C103.953 64.7048 101.759 62.5245 101.322 61.4798C101.367 61.1455 101.548 60.8045 101.859 60.4638ZM146.049 67.8122V171.479C146.049 184.755 134.774 195.556 120.915 195.556H110.903V187.954C110.903 185.622 108.929 183.731 106.495 183.731C104.06 183.731 102.086 185.622 102.086 187.954V195.556H92.084C78.2248 195.556 66.9499 184.755 66.9499 171.48V67.8122V48.1668C66.9499 41.2017 72.8661 35.5351 80.1385 35.5351C87.4134 35.5351 93.3325 41.2013 93.3325 48.1668V57.0902C93.3325 57.2883 93.3516 57.4811 93.3791 57.6716C92.8004 58.9298 92.4917 60.2698 92.4917 61.6523C92.4917 64.5932 94.4715 67.6982 98.7236 71.4248C101.304 73.6864 103.859 75.4104 103.967 75.4825C104.727 75.9933 105.613 76.2487 106.499 76.2487C107.386 76.2487 108.272 75.9933 109.032 75.4825C109.139 75.4104 111.695 73.6868 114.275 71.4248C118.527 67.6982 120.507 64.5932 120.507 61.6523C120.507 60.2718 120.201 58.9222 119.621 57.6616C119.648 57.4739 119.666 57.2847 119.666 57.0902V48.1668C119.666 41.2017 125.585 35.5351 132.86 35.5351C140.133 35.5351 146.049 41.2013 146.049 48.1668V67.8122H146.049ZM165.827 164.043C163.088 167.613 159.215 170.057 154.866 171.041V98.9402L168.962 147.787C170.583 153.409 169.441 159.334 165.827 164.043Z" fill="#81D8F7"/>
</svg>
