<svg width="180" height="170" viewBox="0 0 180 170" fill="none" xmlns="http://www.w3.org/2000/svg">
<path d="M110.124 4.99774C109.959 4.90942 109.793 4.82209 109.627 4.7361C107.824 3.80076 105.558 4.42299 104.568 6.12598C103.577 7.82964 104.236 9.96892 106.04 10.9043C106.176 10.975 106.312 11.0467 106.448 11.1191C107.028 11.4302 107.66 11.5776 108.283 11.5776C109.58 11.5776 110.84 10.9365 111.526 9.79427C112.542 8.1039 111.914 5.95665 110.124 4.99774Z" fill="#4FD8E0"/>
<path d="M67.7237 35.465C65.6664 35.465 63.9982 37.0402 63.9982 38.9835V41.7826C63.9982 43.726 65.6664 45.3011 67.7237 45.3011C69.7811 45.3011 71.4492 43.726 71.4492 41.7826V38.9835C71.4492 37.0402 69.7807 35.465 67.7237 35.465Z" fill="#4FD8E0"/>
<path d="M112.276 35.465C110.219 35.465 108.551 37.0402 108.551 38.9835V41.7826C108.551 43.726 110.219 45.3011 112.276 45.3011C114.334 45.3011 116.002 43.726 116.002 41.7826V38.9835C116.002 37.0402 114.334 35.465 112.276 35.465Z" fill="#4FD8E0"/>
<path d="M149.966 121.282L130.873 56.0324V40.1387V38.6017C130.873 28.2881 126.62 18.5945 118.899 11.3067C117.444 9.93307 115.085 9.93373 113.63 11.308C112.176 12.6823 112.176 14.9102 113.632 16.2838C116.079 18.5941 118.094 21.2026 119.652 24.0192C117.389 23.0922 114.896 22.5752 112.276 22.5752C102.019 22.5752 93.6751 30.4543 93.6751 40.1387V42.4051C92.5008 42.1026 91.2609 41.9436 89.9995 41.9436C88.737 41.9436 87.4981 42.108 86.3239 42.4114V40.1383C86.3239 30.454 77.9799 22.5748 67.723 22.5748C65.1127 22.5748 62.6275 23.0878 60.3711 24.0086C65.9592 13.9307 77.1425 7.03675 89.9998 7.03675C92.6998 7.03675 95.3844 7.34123 97.9793 7.94187C99.9786 8.40506 101.995 7.24892 102.485 5.36165C102.974 3.47438 101.751 1.56951 99.7525 1.10699C96.5779 0.37254 93.2964 0 89.9998 0C67.4625 0 49.1271 17.3168 49.1271 38.602V40.139V56.0327L30.034 121.282C28.0516 128.058 29.4462 135.197 33.8605 140.87C37.7888 145.918 43.6223 149.108 50.0784 149.817C51.5146 154.951 54.5067 159.494 58.5514 162.963H49.4896C47.4322 162.963 45.764 164.538 45.764 166.481C45.764 168.425 47.4322 170 49.4896 170H89.9963H130.511C132.569 170 134.237 168.425 134.237 166.481C134.237 164.538 132.569 162.963 130.511 162.963H121.449C125.494 159.494 128.486 154.951 129.922 149.816C136.379 149.107 142.212 145.917 146.14 140.87C150.554 135.198 151.948 128.058 149.966 121.282ZM49.1274 142.535H49.1271C45.4522 141.715 42.1795 139.678 39.8645 136.703C36.8108 132.779 35.8454 127.841 37.2161 123.156L49.1274 82.4502V142.535ZM86.0781 50.3865C86.7067 49.7075 88.0673 48.9813 89.9998 48.9813C91.4725 48.9813 92.8615 49.4309 93.7141 50.184C93.7144 50.1843 93.7151 50.1846 93.7155 50.185C93.9915 50.4283 94.3153 50.7989 94.3757 51.2339C94.0048 52.1134 92.1714 53.9117 90.0009 55.5977C87.8479 53.9207 85.9938 52.1038 85.6239 51.2332C85.6626 50.9546 85.8152 50.6704 86.0781 50.3865ZM123.422 56.5102V142.9C123.422 153.963 113.893 162.963 102.181 162.963H93.7211V156.628C93.7211 154.685 92.053 153.11 89.9956 153.11C87.9383 153.11 86.2701 154.685 86.2701 156.628V162.963H77.8175C66.1055 162.963 56.5774 153.963 56.5774 142.9V56.5102V40.139C56.5774 34.3348 61.577 29.6126 67.7227 29.6126C73.8705 29.6126 78.8725 34.3344 78.8725 40.139V47.5752C78.8725 47.7402 78.8887 47.9009 78.9119 48.0596C78.4229 49.1082 78.162 50.2248 78.162 51.377C78.162 53.8277 79.8351 56.4152 83.4284 59.5207C85.6088 61.4053 87.7681 62.842 87.8592 62.9021C88.5018 63.3278 89.2503 63.5406 89.9995 63.5406C90.7487 63.5406 91.4975 63.3278 92.1398 62.9021C92.2305 62.842 94.3901 61.4056 96.5705 59.5207C100.164 56.4152 101.837 53.8277 101.837 51.377C101.837 50.2265 101.579 49.1019 101.088 48.0513C101.111 47.8949 101.126 47.7372 101.126 47.5752V40.139C101.126 34.3348 106.128 29.6126 112.276 29.6126C118.422 29.6126 123.422 34.3344 123.422 40.139V56.5102H123.422ZM140.136 136.703C137.821 139.678 134.548 141.715 130.873 142.534V82.4502L142.785 123.156C144.155 127.841 143.189 132.779 140.136 136.703Z" fill="#81D8F7"/>
</svg>
